<svg width="25" height="24" viewBox="0 0 25 24" fill="none" xmlns="http://www.w3.org/2000/svg">
<path fill-rule="evenodd" clip-rule="evenodd" d="M19.4168 5.82455C19.6344 5.87016 19.8206 6.00998 19.925 6.20626C20.712 7.68513 21.2245 9.53955 21.6064 11.3825C21.882 12.7125 22.0975 14.0802 22.2942 15.3289C22.3701 15.8104 22.4431 16.2742 22.5158 16.7113C22.8066 18.4607 22.1346 19.9959 20.9797 21.068C19.8364 22.1294 18.2155 22.7489 16.5249 22.7489H9.14153C7.45095 22.7489 5.82999 22.1294 4.6867 21.068C3.53185 19.9959 2.85986 18.4607 3.15062 16.7113C3.24897 16.1196 3.345 15.4659 3.44549 14.7819C3.60624 13.6877 3.77839 12.5158 3.98972 11.3957C4.33714 9.55416 4.81511 7.69251 5.60605 6.20627C5.7105 6.00999 5.89666 5.87017 6.11428 5.82456C6.33189 5.77895 6.55852 5.83224 6.733 5.97005C7.47822 6.55867 7.76597 6.78181 8.46183 7.01208C9.15593 7.24177 9.74115 7.24889 11.1979 7.24889H14.3332C15.7899 7.24889 16.3751 7.24177 17.0692 7.01208C17.7651 6.78181 18.0528 6.55866 18.7981 5.97005C18.9725 5.83223 19.1992 5.77894 19.4168 5.82455ZM18.9825 7.71612C18.568 8.0077 18.1562 8.23238 17.5405 8.43614C16.5946 8.74914 15.7678 8.74905 14.4226 8.7489C14.3931 8.7489 14.3633 8.74889 14.3332 8.74889H11.1979C11.1678 8.74889 11.138 8.7489 11.1085 8.7489C9.76326 8.74905 8.93645 8.74914 7.99059 8.43614C7.37629 8.23286 6.96499 8.00875 6.55149 7.71815C6.0769 8.86148 5.73675 10.2266 5.46371 11.6738C5.25502 12.78 5.09457 13.8756 4.93929 14.9358C4.83808 15.6269 4.73907 16.303 4.63032 16.9573C4.43275 18.1459 4.87176 19.193 5.70726 19.9687C6.55432 20.7551 7.80306 21.2489 9.14153 21.2489H16.5249C17.8634 21.2489 19.1121 20.7551 19.9592 19.9687C20.7947 19.193 21.2337 18.1459 21.0361 16.9573C20.9593 16.4955 20.8839 16.0165 20.8066 15.5259C20.6118 14.2892 20.4054 12.9791 20.1376 11.6869C19.8374 10.2382 19.4699 8.86634 18.9825 7.71612Z" fill="#007960"/>
<path fill-rule="evenodd" clip-rule="evenodd" d="M11.1759 8.74999C11.2055 8.74999 11.2353 8.74999 11.2653 8.74999H14.4007C14.4307 8.74999 14.4605 8.74999 14.4901 8.74999C15.8353 8.75014 16.6621 8.75023 17.6079 8.43723C18.564 8.12087 19.0283 7.75408 19.7744 7.16471L19.7953 7.14826C19.8577 7.09896 19.9488 7.04786 20.1326 6.94737L20.1328 6.94727C20.2929 6.85975 20.5148 6.73846 20.7248 6.57619C21.193 6.21452 21.583 5.66212 21.583 4.78922C21.583 4.35543 21.3539 4.02869 21.1212 3.81377C20.8915 3.6016 20.5991 3.43959 20.3043 3.31121C19.7099 3.05245 18.9249 2.85433 18.0924 2.70271C16.4154 2.39727 14.3695 2.24999 12.833 2.24999C11.2965 2.24999 9.25063 2.39727 7.57362 2.70271C6.74115 2.85433 5.95607 3.05245 5.36174 3.31121C5.06689 3.43959 4.77455 3.6016 4.54483 3.81377C4.31215 4.02869 4.08301 4.35543 4.08301 4.78922C4.08301 5.66212 4.47301 6.21452 4.94117 6.57619C5.15121 6.73846 5.3731 6.85975 5.53321 6.94727L5.5334 6.94737C5.71723 7.04786 5.80833 7.09896 5.87074 7.14826C5.87771 7.15376 5.88466 7.15925 5.89158 7.16472C6.6377 7.75408 7.10206 8.12087 8.05807 8.43723C9.00393 8.75023 9.83074 8.75014 11.1759 8.74999ZM11.2653 7.24999C9.80863 7.24999 9.22341 7.24287 8.52931 7.01318C7.83345 6.78291 7.5457 6.55976 6.80048 5.97115C6.63042 5.83682 6.42946 5.72738 6.28626 5.64939C6.27474 5.64312 6.2636 5.63705 6.25287 5.63119C6.08511 5.53948 5.96221 5.46951 5.85821 5.38916C5.7159 5.27922 5.60911 5.15762 5.58716 4.89457C5.65076 4.84331 5.76797 4.77035 5.96053 4.68652C6.39744 4.49629 7.04987 4.32278 7.8424 4.17843C9.41539 3.89194 11.3695 3.74999 12.833 3.74999C14.2965 3.74999 16.2506 3.89194 17.8236 4.17843C18.6161 4.32278 19.2686 4.49629 19.7055 4.68652C19.898 4.77035 20.0153 4.84331 20.0789 4.89457C20.0569 5.15762 19.9501 5.27923 19.8078 5.38916C19.7038 5.46951 19.5809 5.53948 19.4131 5.63119C19.4024 5.63705 19.3913 5.64312 19.3798 5.64939C19.2365 5.72738 19.0356 5.83682 18.8655 5.97115C18.1203 6.55976 17.8326 6.78291 17.1367 7.01318C16.4426 7.24287 15.8574 7.24999 14.4007 7.24999H11.2653Z" fill="#007960"/>
<path d="M15.645 16.5586C15.5958 17.1783 15.331 17.7611 14.8967 18.2059C14.4623 18.6506 13.8859 18.929 13.2676 18.9928C13.3168 18.3732 13.5816 17.7903 14.0159 17.3456C14.4502 16.9009 15.0267 16.6224 15.645 16.5586Z" fill="#007960"/>
<path fill-rule="evenodd" clip-rule="evenodd" d="M15.7495 16.4528C15.7813 16.484 15.7977 16.5276 15.7942 16.572C15.7422 17.2267 15.4625 17.8424 15.0036 18.3122C14.5448 18.782 13.9358 19.0762 13.2826 19.1436C13.2383 19.1482 13.1942 19.1328 13.1624 19.1017C13.1305 19.0706 13.1141 19.0269 13.1177 18.9825C13.1696 18.3279 13.4493 17.7122 13.9082 17.2423C14.367 16.7725 14.976 16.4784 15.6293 16.4109C15.6736 16.4064 15.7176 16.4217 15.7495 16.4528ZM15.4731 16.7358C14.961 16.828 14.4885 17.0775 14.1228 17.452C13.7571 17.8264 13.5188 18.3047 13.4387 18.8188C13.9508 18.7266 14.4233 18.4771 14.789 18.1026C15.1547 17.7282 15.393 17.2499 15.4731 16.7358Z" fill="#007960"/>
<path d="M12.7786 19.0033C12.1584 18.9577 11.5738 18.6958 11.1269 18.2633C10.68 17.8308 10.399 17.2551 10.333 16.6367C10.953 16.6831 11.5372 16.9452 11.984 17.3776C12.4308 17.81 12.7119 18.3852 12.7786 19.0033Z" fill="#007960"/>
<path fill-rule="evenodd" clip-rule="evenodd" d="M10.2254 16.53C10.2563 16.498 10.2999 16.4815 10.3443 16.4848C10.9993 16.5338 11.6164 16.8107 12.0884 17.2675C12.5604 17.7242 12.8574 18.3319 12.9278 18.9849C12.9326 19.0292 12.9175 19.0733 12.8866 19.1053C12.8556 19.1373 12.8121 19.1539 12.7677 19.1506C12.1124 19.1023 11.4948 18.8257 11.0227 18.3687C10.5505 17.9118 10.2537 17.3036 10.184 16.6503C10.1792 16.606 10.1944 16.562 10.2254 16.53ZM10.5093 16.8051C10.6033 17.3171 10.8549 17.7889 11.2313 18.1531C11.6077 18.5174 12.0874 18.7533 12.6023 18.8305C12.5078 18.3187 12.256 17.8472 11.8798 17.4831C11.5035 17.1189 11.024 16.8828 10.5093 16.8051Z" fill="#007960"/>
<path d="M15.645 14.3672C15.5958 14.9869 15.331 15.5697 14.8967 16.0144C14.4623 16.4592 13.8859 16.7376 13.2676 16.8014C13.3168 16.1818 13.5816 15.5989 14.0159 15.1542C14.4502 14.7095 15.0267 14.431 15.645 14.3672Z" fill="#007960"/>
<path fill-rule="evenodd" clip-rule="evenodd" d="M15.7495 14.2614C15.7813 14.2926 15.7977 14.3362 15.7942 14.3806C15.7422 15.0353 15.4625 15.651 15.0036 16.1208C14.5448 16.5906 13.9358 16.8848 13.2826 16.9522C13.2383 16.9568 13.1942 16.9414 13.1624 16.9103C13.1305 16.8792 13.1141 16.8355 13.1177 16.7911C13.1696 16.1365 13.4493 15.5207 13.9082 15.0509C14.367 14.5811 14.976 14.287 15.6293 14.2195C15.6736 14.215 15.7176 14.2303 15.7495 14.2614ZM15.4731 14.5444C14.961 14.6366 14.4885 14.8861 14.1228 15.2606C13.7571 15.635 13.5188 16.1133 13.4387 16.6274C13.9508 16.5352 14.4233 16.2857 14.789 15.9112C15.1547 15.5367 15.393 15.0585 15.4731 14.5444Z" fill="#007960"/>
<path d="M12.7786 16.8119C12.1584 16.7663 11.5738 16.5044 11.1269 16.0719C10.68 15.6394 10.399 15.0637 10.333 14.4453C10.9532 14.4911 11.5377 14.753 11.9846 15.1855C12.4315 15.618 12.7125 16.1936 12.7786 16.8119Z" fill="#007960"/>
<path fill-rule="evenodd" clip-rule="evenodd" d="M10.2253 14.3386C10.2563 14.3067 10.2998 14.2901 10.3441 14.2934C10.9994 14.3417 11.6169 14.6185 12.089 15.0754C12.5612 15.5323 12.858 16.1404 12.9279 16.7937C12.9326 16.8379 12.9174 16.8819 12.8865 16.9139C12.8556 16.9459 12.812 16.9625 12.7677 16.9592C12.1124 16.9109 11.4948 16.6343 11.0227 16.1773C10.5505 15.7204 10.2537 15.1122 10.184 14.4589C10.1792 14.4147 10.1944 14.3706 10.2253 14.3386ZM10.5093 14.6135C10.6033 15.1256 10.8549 15.5975 11.2313 15.9617C11.6077 16.326 12.0876 16.562 12.6025 16.6391C12.5084 16.127 12.2568 15.6552 11.8804 15.291C11.504 14.9267 11.0242 14.6907 10.5093 14.6135Z" fill="#007960"/>
<path d="M15.645 12.1797C15.5958 12.7994 15.331 13.3822 14.8967 13.8269C14.4623 14.2716 13.8859 14.5501 13.2676 14.6139C13.3168 13.9942 13.5816 13.4114 14.0159 12.9667C14.4502 12.5219 15.0267 12.2435 15.645 12.1797Z" fill="#007960"/>
<path fill-rule="evenodd" clip-rule="evenodd" d="M15.7495 12.0739C15.7813 12.1051 15.7977 12.1487 15.7942 12.1931C15.7422 12.8478 15.4625 13.4635 15.0036 13.9333C14.5448 14.4031 13.9358 14.6973 13.2826 14.7647C13.2383 14.7693 13.1942 14.7539 13.1624 14.7228C13.1305 14.6917 13.1141 14.648 13.1177 14.6036C13.1696 13.949 13.4493 13.3332 13.9082 12.8634C14.367 12.3936 14.976 12.0995 15.6293 12.032C15.6736 12.0275 15.7176 12.0428 15.7495 12.0739ZM15.4731 12.3569C14.961 12.4491 14.4885 12.6986 14.1228 13.073C13.7571 13.4475 13.5188 13.9257 13.4387 14.4398C13.9508 14.3477 14.4233 14.0981 14.789 13.7237C15.1547 13.3492 15.393 12.871 15.4731 12.3569Z" fill="#007960"/>
<path d="M12.7786 14.6244C12.1584 14.5788 11.5738 14.3168 11.1269 13.8843C10.68 13.4519 10.399 12.8762 10.333 12.2578C10.9532 12.3036 11.5377 12.5655 11.9846 12.998C12.4315 13.4305 12.7125 14.0061 12.7786 14.6244Z" fill="#007960"/>
<path fill-rule="evenodd" clip-rule="evenodd" d="M10.2253 12.1511C10.2563 12.1192 10.2998 12.1026 10.3441 12.1059C10.9994 12.1542 11.6169 12.431 12.089 12.8879C12.5612 13.3448 12.858 13.9529 12.9279 14.6062C12.9326 14.6504 12.9174 14.6944 12.8865 14.7264C12.8556 14.7584 12.812 14.775 12.7677 14.7717C12.1124 14.7234 11.4948 14.4467 11.0227 13.9898C10.5505 13.5329 10.2537 12.9247 10.184 12.2714C10.1792 12.2272 10.1944 12.1831 10.2253 12.1511ZM10.5093 12.426C10.6033 12.9381 10.8549 13.41 11.2313 13.7742C11.6077 14.1385 12.0876 14.3745 12.6025 14.4516C12.5084 13.9395 12.2568 13.4677 11.8804 13.1035C11.504 12.7392 11.0242 12.5032 10.5093 12.426Z" fill="#007960"/>
<path d="M12.9834 13.4008C12.5772 12.9303 12.349 12.3321 12.3387 11.7106C12.3285 11.0891 12.5367 10.4837 12.9271 10C13.3333 10.4705 13.5615 11.0687 13.5717 11.6902C13.582 12.3117 13.3738 12.9171 12.9834 13.4008Z" fill="#007960"/>
<path fill-rule="evenodd" clip-rule="evenodd" d="M12.9247 9.85158C12.9692 9.85085 13.0117 9.86988 13.0408 9.90354C13.4699 10.4006 13.711 11.0326 13.7218 11.6893C13.7327 12.3459 13.5127 12.9855 13.1002 13.4966C13.0723 13.5312 13.0304 13.5516 12.9859 13.5523C12.9415 13.5531 12.899 13.534 12.8699 13.5004C12.4408 13.0033 12.1997 12.3713 12.1889 11.7146C12.178 11.058 12.398 10.4184 12.8105 9.90735C12.8384 9.87274 12.8803 9.85232 12.9247 9.85158ZM12.9313 10.2466C12.6358 10.675 12.4802 11.1863 12.4888 11.7097C12.4975 12.2331 12.6699 12.739 12.9794 13.1573C13.2749 12.729 13.4305 12.2177 13.4219 11.6942C13.4132 11.1708 13.2408 10.6649 12.9313 10.2466Z" fill="#007960"/>
<path fill-rule="evenodd" clip-rule="evenodd" d="M10.5098 4.82322C10.6074 4.92085 10.6074 5.07915 10.5098 5.17678L10.0098 5.67678C9.91215 5.77441 9.75386 5.77441 9.65623 5.67678C9.5586 5.57915 9.5586 5.42085 9.65623 5.32322L10.1562 4.82322C10.2539 4.72559 10.4122 4.72559 10.5098 4.82322ZM13.1562 4.82322C13.2539 4.72559 13.4122 4.72559 13.5098 4.82322L14.0098 5.32322C14.1074 5.42085 14.1074 5.57915 14.0098 5.67678C13.9122 5.77441 13.7539 5.77441 13.6562 5.67678L13.1562 5.17678C13.0586 5.07915 13.0586 4.92085 13.1562 4.82322ZM9.00978 5.32322C9.10742 5.42085 9.10742 5.57915 9.00978 5.67678L8.50978 6.17678C8.41215 6.27441 8.25386 6.27441 8.15623 6.17678C8.0586 6.07915 8.0586 5.92085 8.15623 5.82322L8.65623 5.32322C8.75386 5.22559 8.91215 5.22559 9.00978 5.32322ZM16.6562 5.32322C16.7539 5.22559 16.9122 5.22559 17.0098 5.32322L17.5098 5.82322C17.6074 5.92085 17.6074 6.07915 17.5098 6.17678C17.4122 6.27441 17.2539 6.27441 17.1562 6.17678L16.6562 5.67678C16.5586 5.57915 16.5586 5.42085 16.6562 5.32322ZM10.1562 5.82323C10.2539 5.7256 10.4122 5.7256 10.5098 5.82323L11.0098 6.32323C11.1074 6.42086 11.1074 6.57915 11.0098 6.67678C10.9122 6.77441 10.7539 6.77441 10.6562 6.67678L10.1562 6.17678C10.0586 6.07915 10.0586 5.92086 10.1562 5.82323ZM13.0098 5.82323C13.1074 5.92086 13.1074 6.07915 13.0098 6.17678L12.5098 6.67678C12.4122 6.77441 12.2539 6.77441 12.1562 6.67678C12.0586 6.57915 12.0586 6.42086 12.1562 6.32323L12.6562 5.82323C12.7539 5.7256 12.9122 5.7256 13.0098 5.82323ZM14.6562 5.82323C14.7539 5.7256 14.9122 5.7256 15.0098 5.82323L15.5098 6.32323C15.6074 6.42086 15.6074 6.57915 15.5098 6.67678C15.4122 6.77441 15.2539 6.77441 15.1562 6.67678L14.6562 6.17678C14.5586 6.07915 14.5586 5.92086 14.6562 5.82323Z" fill="#007960"/>
</svg>
